<svg xmlns="http://www.w3.org/2000/svg" xmlns:xlink="http://www.w3.org/1999/xlink" viewBox="0 0 578.86 312.24"><defs><style>.cls-1{fill:#4d4d4d;}.cls-1,.cls-10,.cls-11,.cls-12,.cls-13,.cls-14,.cls-16,.cls-2,.cls-5,.cls-6,.cls-7,.cls-8,.cls-9{fill-rule:evenodd;}.cls-2{fill:#e6e6e6;opacity:0.75;}.cls-3{fill:url(#linear-gradient);}.cls-4{fill:url(#linear-gradient-2);}.cls-5{opacity:0.1;}.cls-6{fill:url(#radial-gradient);}.cls-7{fill:#8ed300;}.cls-8{fill:url(#linear-gradient-3);}.cls-9{fill:url(#radial-gradient-2);}.cls-10,.cls-16{fill:#fff;}.cls-10{opacity:0.8;}.cls-11{fill:url(#radial-gradient-3);}.cls-12,.cls-13{fill:none;stroke:#666;}.cls-12{stroke-miterlimit:3.86;}.cls-13{stroke-miterlimit:3.86;stroke-width:2.06px;}.cls-14,.cls-15{fill:#666;}.cls-16{opacity:0.15;}</style><linearGradient id="linear-gradient" x1="499.52" y1="190.87" x2="499.52" y2="63.64" gradientUnits="userSpaceOnUse"><stop offset="0" stop-color="#1a1a1a"/><stop offset="0.35" stop-color="#1a1a1a"/><stop offset="1" stop-color="#666"/></linearGradient><linearGradient id="linear-gradient-2" x1="471.02" y1="190.87" x2="471.02" y2="63.64" xlink:href="#linear-gradient"/><radialGradient id="radial-gradient" cx="346.76" cy="175.46" r="195.05" gradientUnits="userSpaceOnUse"><stop offset="0" stop-color="#d5e20f"/><stop offset="0.64" stop-color="#d5e20f" stop-opacity="0"/><stop offset="1" stop-color="#d5e20f" stop-opacity="0"/></radialGradient><linearGradient id="linear-gradient-3" x1="363.92" y1="61.3" x2="363.92" y2="199.09" gradientUnits="userSpaceOnUse"><stop offset="0" stop-color="#d5e20f"/><stop offset="0.25" stop-color="#d5e20f"/><stop offset="1" stop-color="#d5e20f" stop-opacity="0"/></linearGradient><radialGradient id="radial-gradient-2" cx="254.35" cy="133.21" r="137.9" gradientUnits="userSpaceOnUse"><stop offset="0" stop-color="#d5e20f" stop-opacity="0.8"/><stop offset="0.13" stop-color="#d5e20f" stop-opacity="0.8"/><stop offset="0.67" stop-color="#d5e20f" stop-opacity="0"/><stop offset="1" stop-color="#d5e20f" stop-opacity="0"/></radialGradient><radialGradient id="radial-gradient-3" cx="557.22" cy="87.07" r="20.63" gradientUnits="userSpaceOnUse"><stop offset="0" stop-color="#b3b3b3"/><stop offset="1" stop-color="#4d4d4d"/></radialGradient></defs><g id="Capa_2" data-name="Capa 2"><g id="Primer_plano" data-name="Primer plano"><path class="cls-1" d="M145.93,135.09A37,37,0,0,0,157.6,162.6a39.77,39.77,0,0,0,28.31,11.19,38.18,38.18,0,0,0,27.83-11.35,37,37,0,0,0,11.67-27.5q0-18.89-12.47-30.07Q201.9,95,185.75,95t-27.35,9.92Q145.94,116.06,145.93,135.09Zm-30.13.55q0-33.45,21.93-53.14,19.68-17.43,48.08-17.43t47.8,17.43q21.93,19.68,21.93,52.86,0,28.39-20.52,48.36-20.25,20-48.93,20-29,0-49.76-19.68Q115.79,164,115.8,135.64Z"/><path class="cls-2" d="M290.78,7.64s18.88-25.49,130.29,16.65C539.2,69,503.12,105.89,501.13,108s-45.32,29.58-152.82,2.78C232.14,81.79,290.78,7.64,290.78,7.64Z"/><path class="cls-3" d="M501.12,76.41c5.43-4.21,14.49-4.54,22.93-3.44,25.17,3.29,46.06,30,46.06,53.1,0,35.68-50.56,43.92-57.65,38.44-3,18.27-23.94,25.64-40.49,25.64-10.93,0-19.75,1.62-26.85,0-1.31-90.56-23.27-95.27-13.87-106.59C441.45,71.3,455.92,63.64,472,63.64,482.65,63.64,496.22,70,501.12,76.41Z"/><path class="cls-4" d="M501.12,76.41C496.22,70,482.65,63.64,472,63.64c-16.05,0-30.52,7.66-40.72,19.92-9.4,11.32,12.56,16,13.87,106.59,7.1,1.62,15.92,0,26.85,0,16.55,0,36-6.61,40.49-25.64,3.49-14.92-7.86-38.64-9-51.39C501.37,90.65,502.43,91.79,501.12,76.41Z"/><path class="cls-5" d="M480.5,189.17s44.91-2.62,29.37-50.19l-4.66-16C514.86,169.76,480.5,164,480.5,189.17Z"/><polygon class="cls-1" points="397.27 223.06 399.45 223.06 401.7 224.27 402.83 225.8 403.26 227.88 403.26 286.77 402.45 289.13 401.2 290.5 399.33 291.32 398.02 291.48 396.77 291.21 395.02 290.22 394.08 288.58 393.58 286.5 393.58 227.33 394.27 225.42 395.52 223.99 397.27 223.06"/><path class="cls-1" d="M139.69,221.94h2.25l4.75.93,5.56,2.19,4.18,3.29L158.8,231l1.94,3,1.19,3.67.31,2v18.73l-.87,1.7-2.25.39H132.51l-2.25.38-1.19,1.31v11.29l.63,1.8,1.81,3,1.31,1.2,3.31,1.81,2.06.55,2.37.22,2.13-.11,2.37-.55,1.81-.77,3-2,1.19-1.42.87-1.59.63-1.7.25-2.08.75-1.7,1.06-1.31,1.81-.94,2.06-.1,1.81.93,1.19,1.15.75,1.86v1.92l-1.19,3.94-2.68,4.71-2.56,2.52-3,2.08-3.25,1.7-6.12,1.7h-4.62l-2.57-.38-5.81-2-3.12-2-2.56-2.35-3.31-4.17-.69-1.75-1.06-3.78-.31-32.32.44-4.33,1.37-3.56,2.94-4.43,2.74-2.36,4.63-2.9,6.12-1.7Zm-.44,8.49-2.56.55-2.06.93-3.12,2.46L130.26,236l-.88,1.81-.43,2.35v8l.31,2.36,1.5,1.31,2.68.27h15.18l2.56-.38,1.38-1.48.12-10.46-.43-2.19-.88-1.86-1.25-1.59-1.62-1.32-1.81-1-2.07-.76-2.37-.55Z"/><polygon class="cls-1" points="192.94 221.83 195.31 221.83 200.69 222.87 202.81 223.69 206.56 225.61 209.68 228.02 213.43 232.56 215.05 236.23 215.55 238.48 215.68 285.04 215.24 287.29 214.05 288.87 212.37 290.02 210.87 290.3 209.87 290.19 208.06 289.09 206.87 287.56 206.24 283.34 206.24 241.38 205.93 239.03 205.37 237.06 203.12 233.77 201.62 232.45 197.75 230.76 195.31 230.37 192.75 230.37 189.94 230.87 186.19 232.84 184.69 234.15 182.76 237.55 182.13 239.69 182.01 285.59 181.13 287.94 179.88 289.53 177.82 290.3 175.45 289.75 173.76 288.6 172.89 286.74 172.57 284.38 172.57 240.34 172.89 237.99 173.45 235.85 175.14 232.18 177.51 229.06 180.51 226.43 183.94 224.29 188.13 222.76 192.94 221.83"/><path class="cls-1" d="M245.13,221.94h2.24l4.75.93,5.56,2.19,4.19,3.29,2.37,2.63,1.94,3,1.18,3.67.32,2v18.73l-.88,1.7-2.25.39H237.94l-2.25.38-1.18,1.31v11.29l.62,1.8,1.81,3,1.31,1.2,3.32,1.81,2.06.55L246,282l2.12-.11,2.38-.55,1.81-.77,3-2,1.18-1.42.88-1.59.62-1.7.25-2.08.75-1.7,1.07-1.31,1.81-.94,2.06-.1,1.81.93,1.19,1.15.75,1.86v1.92l-1.19,3.94-2.69,4.71-2.56,2.52-3,2.08L255,288.6l-6.13,1.7h-4.62l-2.56-.38-5.81-2-3.12-2-2.56-2.35-3.31-4.17-.69-1.75-1.06-3.78-.32-32.32.44-4.33,1.38-3.56,2.93-4.43,2.75-2.36,4.62-2.9,6.12-1.7Zm-.44,8.49-2.56.55-2.06.93-3.13,2.46L235.69,236l-.87,1.81-.44,2.35v8l.31,2.36,1.5,1.31,2.69.27h15.18l2.56-.38L258,250.2l.13-10.46-.44-2.19-.87-1.86-1.25-1.59-1.63-1.32-1.81-1-2.06-.76-2.37-.55Z"/><polygon class="cls-1" points="301.24 221.94 305.55 221.94 310.61 223.14 314.98 225.06 318.54 227.58 320.54 229.66 322.92 233.11 324.1 235.85 324.85 238.97 324.85 240.84 324.42 242.26 323.48 243.46 322.29 244.23 320.67 244.78 318.86 244.5 317.36 243.85 315.73 241.49 313.92 235.58 312.11 233.5 310.92 232.56 308.24 231.25 304.93 230.32 300.93 230.48 297.74 231.52 295.25 233.11 293.31 235.08 291.93 237.66 291.62 239.25 291.5 284.27 290.87 287.56 290.12 288.71 287.44 290.19 286.37 290.3 284.31 289.37 283.13 288.44 282.38 287.29 282.06 285.7 282.06 238.97 283.25 234.43 287.31 228.51 289.56 226.65 293.31 224.29 296.31 223.14 301.24 221.94"/><path class="cls-1" d="M354.33,223.12h23.3l2.74.82,1.75,1.7.44.82-.12,1.7-1.75,1.64-2.63,1a5.27,5.27,0,0,0-2.18,1.15l-.13,1,1.56,3.67.63,2.52V254l-1.56,4.77-2.69,3.83L370,265.63l-2.32,1.31-5,2-6.37,1.1L354,271.16l-1.68,1.64-.63,2.52,1.56,1.81,9.44,1.54,5,2,4.19,2.91,3.25,3.34,2.18,4.27.63,2.46v2.91l-.63,2.52-2.37,4.16-3.25,3.45-2,1.43-4.81,2.3L359.14,312l-3.56.27-3.44-.27-5.68-1.53-4.69-2.3-2-1.43L338,305.07l-2.93-3.73-1.57-4.76v-1.32L334,294l1.57-1.81,2.93-.71,2.81.93,1.5,1.81,1.56,4.65,1.25,1.92,2,1.53,2.19,1.21,2.93.71,3.57.28,3.43-.39,2.5-.93,2.19-1.31,1.68-1.7,1.25-2,.63-2.35v-1.92l-1.25-3.12-1.56-1.81-1.88-1.37-2.5-1.21-9.43-1.42-2.81-.88-2.31-1.2-2-1.54-1.44-1.8-.75-2.36v-2.74l1.69-4.65.31-1.59-.44-.82-4.06-2.85-3.24-3.34-2.19-4.33-.63-2.41-.12-14.3.44-3.12.93-2.25,2.69-3.83,1.69-1.7,4-2.85,5.13-2Zm-.32,8.82-5.87,1.75-2.93,2.19L343.46,239l-.13,12.71.44,2.57,1.25,2,2.81,2.25,1.25.66,2.75.87,3.62.33L359,260l2.94-.77,1.25-.65,2.93-2.14,1.69-3.07V239.34l-.75-2.41-1.56-1.7-2-1.43-3.87-1.53-3.63-.33Z"/><path class="cls-1" d="M433.25,221.94l5.19.11,4.18,1.09,3.63,1.54,4.49,3,3.25,4.05,1.69,3.18,1.19,3.67v35l-1.07,3.78-3.87,5.91-4.18,3.4-5.13,2.46-4.31.93-4.49.28-2.57-.55-5.93-1.81-5.87-4.21-3.25-4.06-2-5.37v-6.68l1.25-3.67.88-1.53,2.06-2.74,2.56-2.52,3-2.08,3.43-1.59,4.06-1.15,2.25-.28,10.43-.16,2.13-.49.87-1.59v-11.4l-.56-1.69-1.94-2.85-1.5-1.21L439.81,231l-1.93-.55-2.56-.11-2.38.27-3.87,1.15L426.2,234l-1.94,2.9-.94,3.89-.69,1.7-1.24,1.2-1.75.93-2.44-.27-1.62-.93-1.07-1.32-.43-2,.12-2.19,2-5.37,2.06-2.79,2.56-2.46,4.5-3,3.75-1.42Zm1.19,38.4-4.81,1.15-1.81,1.2-1.5,1.26L425,265.54l-.94,1.7-.56,4.71.44,2.35.75,2,2.68,3,3.75,2,2.56.55,2.81.11,2.56-.39,2.13-.82,3.43-2.35,1.19-1.54.87-1.86.63-2.19-.19-10.52-1-1.53-2.75-.38Z"/><path class="cls-6" d="M402.83,225.8l.44,2.08v58.89l-.82,2.36-1.25,1.37-1.87.82-1.31.16-1.25-.27-1.75-1-.94-1.64-.5-2.08V227.33l.69-1.91,1.25-1.43,1.75-.93h2.18l2.25,1.21Zm-240.9,11.86.31,2v18.73l-.87,1.7-2.25.39H132.51l-2.25.38-1.19,1.31v11.29l.63,1.8,1.81,3,1.31,1.2,3.31,1.81,2.06.55,2.37.22,2.13-.11,2.37-.55,1.81-.77,3-2,1.19-1.42.87-1.59.63-1.7.25-2.08.75-1.7,1.06-1.31,1.81-.94,2.06-.1,1.81.93,1.19,1.15.75,1.86v1.92l-1.19,3.94-2.68,4.71-2.56,2.52-3,2.08-3.25,1.7-6.12,1.7h-4.62l-2.57-.38-5.81-2-3.12-2-2.56-2.35-3.31-4.17-.69-1.75-1.06-3.78-.31-32.32.44-4.33,1.37-3.56,2.94-4.43,2.74-2.36,4.63-2.9,6.12-1.7,2.06-.38h2.25l4.75.93,5.56,2.19,4.18,3.29L158.8,231l1.94,3Zm-9.25,2.08-.43-2.19-.88-1.86-1.25-1.59-1.62-1.32-1.81-1-2.07-.76-2.37-.55h-3l-2.56.55-2.06.93-3.12,2.46L130.26,236l-.88,1.81-.43,2.35v8l.31,2.36,1.5,1.31,2.68.27h15.18l2.56-.38,1.38-1.48Zm62.37-3.51-1.62-3.67L209.68,228l-3.12-2.41-3.75-1.92-2.13-.82-5.37-1h-2.37l-4.81.93-4.19,1.53-3.43,2.14-3,2.63-2.37,3.12-1.69,3.67-.56,2.14-.32,2.35v44l.32,2.36.87,1.86,1.69,1.15,2.37.55,2.06-.77,1.25-1.59.88-2.35.12-45.9.63-2.14,1.93-3.4,1.5-1.31,3.75-2,2.81-.5h2.56l2.44.39,3.87,1.69,1.5,1.32,2.25,3.29.56,2,.31,2.35v42l.63,4.22,1.19,1.53,1.81,1.1,1,.11,1.5-.28,1.68-1.15,1.19-1.58.44-2.25-.13-46.56Zm52.31,1.43.32,2v18.73l-.88,1.7-2.25.39H237.94l-2.25.38-1.18,1.31v11.29l.62,1.8,1.81,3,1.31,1.2,3.32,1.81,2.06.55L246,282l2.12-.11,2.38-.55,1.81-.77,3-2,1.18-1.42.88-1.59.62-1.7.25-2.08.75-1.7,1.07-1.31,1.81-.94,2.06-.1,1.81.93,1.19,1.15.75,1.86v1.92l-1.19,3.94-2.69,4.71-2.56,2.52-3,2.08L255,288.6l-6.13,1.7h-4.62l-2.56-.38-5.81-2-3.12-2-2.56-2.35-3.31-4.17-.69-1.75-1.06-3.78-.32-32.32.44-4.33,1.38-3.56,2.93-4.43,2.75-2.36,4.62-2.9,6.12-1.7,2.07-.38h2.24l4.75.93,5.56,2.19,4.19,3.29,2.37,2.63,1.94,3Zm-9.24,2.08-.44-2.19-.87-1.86-1.25-1.59-1.63-1.32-1.81-1-2.06-.76-2.37-.55h-3l-2.56.55-2.06.93-3.13,2.46L235.69,236l-.87,1.81-.44,2.35v8l.31,2.36,1.5,1.31,2.69.27h15.18l2.56-.38L258,250.2Zm64.8-6.63-2.38-3.45-2-2.08L315,225.06l-4.37-1.92-5.06-1.2h-4.31l-4.93,1.2-3,1.15-3.75,2.36-2.25,1.86-4.06,5.92L282.06,239V285.7l.32,1.59.75,1.15,1.18.93,2.06.93,1.07-.11,2.68-1.48.75-1.15.63-3.29.12-45,.31-1.59,1.38-2.58,1.93-2,2.5-1.59,3.19-1,4-.16,3.31.93,2.68,1.31,1.19.94,1.81,2.08,1.81,5.91,1.63,2.36,1.5.66,1.81.27,1.62-.55,1.19-.77.94-1.2.43-1.43V239l-.75-3.12Zm59.2-7.47.44.82-.12,1.7-1.75,1.64-2.63,1a5.27,5.27,0,0,0-2.18,1.15l-.13,1,1.56,3.67.63,2.52V254l-1.56,4.77-2.69,3.83L370,265.63l-2.32,1.31-5,2-6.37,1.1L354,271.16l-1.68,1.64-.63,2.52,1.56,1.81,9.44,1.54,5,2,4.19,2.91,3.25,3.34,2.18,4.27.63,2.46v2.91l-.63,2.52-2.37,4.16-3.25,3.45-2,1.43-4.81,2.3L359.14,312l-3.56.27-3.44-.27-5.68-1.53-4.69-2.3-2-1.43L338,305.07l-2.93-3.73-1.57-4.76v-1.32L334,294l1.57-1.81,2.93-.71,2.81.93,1.5,1.81,1.56,4.65,1.25,1.92,2,1.53,2.19,1.21,2.93.71,3.57.28,3.43-.39,2.5-.93,2.19-1.31,1.68-1.7,1.25-2,.63-2.35v-1.92l-1.25-3.12-1.56-1.81-1.88-1.37-2.5-1.21-9.43-1.42-2.81-.88-2.31-1.2-2-1.54-1.44-1.8-.75-2.36v-2.74l1.69-4.65.31-1.59-.44-.82-4.06-2.85-3.24-3.34-2.19-4.33-.63-2.41-.12-14.3.44-3.12.93-2.25,2.69-3.83,1.69-1.7,4-2.85,5.13-2,6.06-1.21h23.3l2.74.82Zm-14.3,13.7-.75-2.41-1.56-1.7-2-1.43-3.87-1.53-3.63-.33h-2l-5.87,1.75-2.93,2.19L343.46,239l-.13,12.71.44,2.57,1.25,2,2.81,2.25,1.25.66,2.75.87,3.62.33L359,260l2.94-.77,1.25-.65,2.93-2.14,1.69-3.07Zm89.05-.75v35l-1.07,3.78-3.87,5.91-4.18,3.4-5.13,2.46-4.31.93-4.49.28-2.57-.55-5.93-1.81-5.87-4.21-3.25-4.06-2-5.37v-6.68l1.25-3.67.88-1.53,2.06-2.74,2.56-2.52,3-2.08,3.43-1.59,4.06-1.15,2.25-.28,10.43-.16,2.13-.49.87-1.59v-11.4l-.56-1.69-1.94-2.85-1.5-1.21L439.81,231l-1.93-.55-2.56-.11-2.38.27-3.87,1.15L426.2,234l-1.94,2.9-.94,3.89-.69,1.7-1.24,1.2-1.75.93-2.44-.27-1.62-.93-1.07-1.32-.43-2,.12-2.19,2-5.37,2.06-2.79,2.56-2.46,4.5-3,3.75-1.42,4.18-.93,5.19.11,4.18,1.09,3.63,1.54,4.49,3,3.25,4.05,1.69,3.18Zm-9.56,34.18-.19-10.52-1-1.53-2.75-.38h-8.93l-4.81,1.15-1.81,1.2-1.5,1.26L425,265.54l-.94,1.7-.56,4.71.44,2.35.75,2,2.68,3,3.75,2,2.56.55,2.81.11,2.56-.39,2.13-.82,3.43-2.35,1.19-1.54.87-1.86Z"/><path class="cls-7" d="M383,127.53v50.52q0,9.82-5.62,15.44a18.33,18.33,0,0,1-26.38,0q-5.33-5.62-5.33-15.44V127.53q0-29.75-20.77-29.74-21.32,0-21.33,29.74v50.52q0,9.82-5.33,15.44a17.49,17.49,0,0,1-13.19,5.6,18.41,18.41,0,0,1-13.47-5.6q-5.32-5.62-5.33-15.44V118q0-23.29,17.4-39.85,17.4-16.85,39.57-16.84,21.33,0,40.7,15.44,17.67-15.16,38.44-15.16A57.51,57.51,0,0,1,444.19,78.7a56.1,56.1,0,0,1,17.4,41.54v57.81q0,9.82-5.62,15.44a18.32,18.32,0,0,1-26.37,0q-5.34-5.62-5.34-15.44V127.53q0-12.34-2.24-17.4-5.34-12.06-18.53-12.07Q383,98.06,383,127.53Z"/><path class="cls-8" d="M383,127.53v50.52q0,9.82-5.62,15.44a18.33,18.33,0,0,1-26.38,0q-5.33-5.62-5.33-15.44V127.53q0-29.75-20.77-29.74-21.32,0-21.33,29.74v50.52q0,9.82-5.33,15.44a17.49,17.49,0,0,1-13.19,5.6,18.41,18.41,0,0,1-13.47-5.6q-5.32-5.62-5.33-15.44V118q0-23.29,17.4-39.85,17.4-16.85,39.57-16.84,21.33,0,40.7,15.44,17.67-15.16,38.44-15.16A57.51,57.51,0,0,1,444.19,78.7a56.1,56.1,0,0,1,17.4,41.54v57.81q0,9.82-5.62,15.44a18.32,18.32,0,0,1-26.37,0q-5.34-5.62-5.34-15.44V127.53q0-12.34-2.24-17.4-5.34-12.06-18.53-12.07Q383,98.06,383,127.53Z"/><path class="cls-1" d="M6.75,105.56q0-22.22,20.24-34,11.54-6.75,28.12-6.74,18,0,31.21,7.31,14.34,8.15,14.34,20.8,0,5.07-5.06,10.13a15.74,15.74,0,0,1-11.53,4.78q-6.46,0-16.87-5.91Q57.08,96,52.58,96q-7.32,0-7.31,5.9,0,5.34,6.18,8.44,4.21,2.52,16.31,5.62,17.43,4.5,24.18,8.44,18.28,10.68,18.28,32,0,20.81-14.9,34Q80.69,203.4,57.08,203.4T16.31,191.6Q0,180.64,0,166.57a18.56,18.56,0,0,1,5.34-13.21c3.56-3.75,7.6-5.63,12.09-5.63q8.73,0,19.69,9.56,13.2,11.53,21.36,11.53a17.33,17.33,0,0,0,9.57-2.53c2.81-1.87,4.21-4.13,4.21-6.75q0-7-12.37-10.12-27-6.46-39.36-16Q6.74,122.71,6.75,105.56Z"/><path class="cls-9" d="M145.93,135.09A37,37,0,0,0,157.6,162.6a39.73,39.73,0,0,0,28.31,11.19,38.18,38.18,0,0,0,27.83-11.35,37,37,0,0,0,11.67-27.5q0-18.89-12.47-30.07Q201.9,95,185.75,95t-27.35,9.92Q145.94,116.06,145.93,135.09Zm-30.13.55q0-33.45,21.93-53.14,19.68-17.43,48.08-17.43t47.8,17.43q21.93,19.68,21.93,52.86,0,28.39-20.52,48.36-20.25,20-48.93,20-29,0-49.76-19.68Q115.79,164,115.8,135.64Z"/><path class="cls-10" d="M305.19,17.94s18.88-25.5,130.29,16.64c118.13,44.69,82,81.61,80.06,83.69s-45.32,29.59-152.82,2.78C246.55,92.09,305.19,17.94,305.19,17.94Z"/><path class="cls-1" d="M535.54,105.76c-9.71-11.17-11.11-21.88-4.33-27.77s17.37-2.95,27.08,8.22,10.23,26.12,2.4,30.54C553.28,120.93,545.25,116.92,535.54,105.76Z"/><path class="cls-11" d="M537.4,104.76c-9.71-11.17-11.11-21.87-4.33-27.77s17.37-2.94,27.08,8.23,10.23,26.12,2.4,30.54C555.14,119.94,547.11,115.93,537.4,104.76Z"/><path class="cls-12" d="M523.63,73.06s6-46.44,51.18-35.57"/><path class="cls-13" d="M523.63,73.06s6-46.44,51.18-35.57"/><path class="cls-13" d="M519.8,76.89s-4.61-48.42,40.84-29.64"/><path class="cls-13" d="M519.8,76.89s-4.61-48.42,40.84-29.64"/><path class="cls-14" d="M573.2,37.46A2.83,2.83,0,1,1,576,40.28,2.83,2.83,0,0,1,573.2,37.46Z"/><circle class="cls-15" cx="561.74" cy="47.37" r="3.35"/><path class="cls-5" d="M522.21,104.29a24.44,24.44,0,0,1-6.67,18.1c-2,2.08-45.32,29.58-152.82,2.78C303.06,110.29,289.44,83.51,290.43,61c.84,38.13,46.94,56.44,98.23,65.73,70.77,12.81,109.11,2.7,126.27-7.69C521.19,113,522.21,104.29,522.21,104.29Z"/><path class="cls-16" d="M544.16,77.36a11.74,11.74,0,0,1,8.11,5.76c3.15,5.23-7.6-.12-9.36-3C540.83,76.79,544.16,77.36,544.16,77.36Z"/></g></g></svg>
