<?xml version="1.0" encoding="UTF-8"?>
<svg id="principal" xmlns="http://www.w3.org/2000/svg" viewBox="0 0 1032.28 680.3">
  <defs>
    <style>
      .cls-1 {
        fill: #0b2e34;
      }
    </style>
  </defs>
  <g>
    <path class="cls-1" d="M245.2,487.28c-1,1.72-2.42,3.06-4.26,4.02-1.84.96-3.88,1.44-6.12,1.44h-72.63c-1.6,0-2.9.52-3.9,1.56-1,1.04-1.5,2.44-1.5,4.2,0,5.92,1.38,11.42,4.14,16.51,2.76,5.08,6.58,9.14,11.46,12.18,4.88,3.04,10.6,4.56,17.17,4.56,7.12,0,13.31-1.7,18.55-5.1,5.24-3.4,9.26-7.26,12.07-11.59,1.2-1.76,2.74-3.14,4.62-4.14,1.88-1,3.86-1.48,5.94-1.44,2.08.04,3.92.62,5.52,1.74l.6.48c1.68,1.04,2.96,2.48,3.84,4.32.88,1.84,1.24,3.78,1.08,5.82-.16,2.04-.8,3.94-1.92,5.7-2.56,3.92-6.12,7.74-10.69,11.46-4.56,3.72-10.24,6.88-17.05,9.48-6.8,2.6-14.33,3.9-22.57,3.9-11.77,0-22.19-2.7-31.27-8.1-9.08-5.4-16.15-13.01-21.19-22.81-5.04-9.8-7.56-21.15-7.56-34.03s2.52-23.99,7.56-33.79c5.04-9.8,12.04-17.41,21.01-22.81,8.96-5.4,19.17-8.1,30.61-8.1s21.35,2.62,30.19,7.86c8.84,5.24,15.69,12.32,20.53,21.25,4.84,8.93,7.26,18.79,7.26,29.59,0,2.16-.5,4.1-1.5,5.82h0ZM173.11,445.74c-4.56,2.28-8.06,5.44-10.5,9.48-2.44,4.04-3.66,8.46-3.66,13.27,0,1.52.44,2.78,1.32,3.78.88,1,2.16,1.5,3.84,1.5h49.34c1.76,0,3.06-.5,3.9-1.5.84-1,1.26-2.3,1.26-3.9,0-4.8-1.22-9.18-3.66-13.15-2.44-3.96-5.94-7.1-10.5-9.43-4.56-2.32-9.77-3.48-15.61-3.48s-11.17,1.14-15.73,3.42h0Z"/>
    <path class="cls-1" d="M349.58,427.79c6.44,3.36,11.44,8.34,15.01,14.95,3.56,6.6,5.34,14.67,5.34,24.19v71.19c0,2.4-.54,4.54-1.62,6.42-1.08,1.88-2.54,3.36-4.38,4.44-1.84,1.08-3.96,1.62-6.36,1.62h-.24c-2.4,0-4.54-.54-6.42-1.62-1.88-1.08-3.36-2.56-4.44-4.44-1.08-1.88-1.62-4.02-1.62-6.42v-67.23c0-9.2-2.02-16.17-6.06-20.89-4.04-4.72-10.07-7.08-18.07-7.08-5.84,0-11.26,1.26-16.27,3.78-5,2.52-9.05,6.52-12.13,12-3.08,5.48-4.62,12.31-4.62,20.47v58.95c0,2.4-.54,4.54-1.62,6.42-1.08,1.88-2.54,3.36-4.38,4.44-1.84,1.08-3.96,1.62-6.36,1.62h-.12c-2.4,0-4.54-.54-6.42-1.62-1.88-1.08-3.36-2.56-4.44-4.44-1.08-1.88-1.62-4.02-1.62-6.42v-101.08c0-2.4.52-4.54,1.56-6.42,1.04-1.88,2.52-3.36,4.44-4.44,1.92-1.08,4.04-1.62,6.36-1.62h.12c2.48,0,4.54.48,6.18,1.44,1.64.96,3.22,2.32,4.74,4.08l-.12.24,1.56,2.04c1.12,1.28,2.48,2,4.08,2.16,1.6.16,3.08-.32,4.44-1.44,4.32-3.12,8.8-5.62,13.44-7.51,4.64-1.88,10.52-2.82,17.65-2.82,8.48,0,15.95,1.68,22.39,5.04h0Z"/>
    <path class="cls-1" d="M501.8,487.28c-1,1.72-2.42,3.06-4.26,4.02-1.84.96-3.88,1.44-6.12,1.44h-72.63c-1.6,0-2.9.52-3.9,1.56-1,1.04-1.5,2.44-1.5,4.2,0,5.92,1.38,11.42,4.14,16.51,2.76,5.08,6.58,9.14,11.47,12.18,4.88,3.04,10.6,4.56,17.17,4.56,7.12,0,13.31-1.7,18.55-5.1,5.24-3.4,9.26-7.26,12.06-11.59,1.2-1.76,2.74-3.14,4.62-4.14,1.88-1,3.86-1.48,5.94-1.44,2.08.04,3.92.62,5.52,1.74l.6.48c1.68,1.04,2.96,2.48,3.84,4.32.88,1.84,1.24,3.78,1.08,5.82-.16,2.04-.8,3.94-1.92,5.7-2.56,3.92-6.12,7.74-10.69,11.46-4.56,3.72-10.24,6.88-17.05,9.48-6.8,2.6-14.33,3.9-22.57,3.9-11.77,0-22.19-2.7-31.27-8.1-9.08-5.4-16.15-13.01-21.19-22.81-5.04-9.8-7.56-21.15-7.56-34.03s2.52-23.99,7.56-33.79c5.04-9.8,12.05-17.41,21.01-22.81,8.96-5.4,19.17-8.1,30.61-8.1s21.35,2.62,30.19,7.86c8.84,5.24,15.69,12.32,20.53,21.25,4.84,8.93,7.26,18.79,7.26,29.59,0,2.16-.5,4.1-1.5,5.82h0ZM429.71,445.74c-4.56,2.28-8.07,5.44-10.51,9.48-2.44,4.04-3.66,8.46-3.66,13.27,0,1.52.44,2.78,1.32,3.78.88,1,2.16,1.5,3.84,1.5h49.34c1.76,0,3.06-.5,3.9-1.5.84-1,1.26-2.3,1.26-3.9,0-4.8-1.22-9.18-3.66-13.15-2.44-3.96-5.94-7.1-10.51-9.43-4.56-2.32-9.77-3.48-15.61-3.48s-11.16,1.14-15.73,3.42h0Z"/>
    <path class="cls-1" d="M588.71,426.11c1.92,1.04,3.44,2.46,4.56,4.26,1.12,1.8,1.68,3.86,1.68,6.18v.84c0,2.32-.56,4.38-1.68,6.18-1.12,1.8-2.64,3.22-4.56,4.26-1.92,1.04-4.04,1.56-6.36,1.56h-6c-6.72,0-12.45,1.42-17.17,4.26-4.72,2.84-8.38,7.44-10.99,13.81-2.6,6.36-3.9,14.79-3.9,25.27v45.38c0,2.4-.54,4.54-1.62,6.42-1.08,1.88-2.56,3.36-4.44,4.44-1.88,1.08-4.02,1.62-6.42,1.62h-.12c-2.4,0-4.52-.54-6.36-1.62-1.84-1.08-3.3-2.56-4.38-4.44-1.08-1.88-1.62-4.02-1.62-6.42v-101.08c0-2.4.54-4.54,1.62-6.42,1.08-1.88,2.56-3.36,4.44-4.44,1.88-1.08,4.02-1.62,6.42-1.62h.36c2.56,0,4.62.56,6.18,1.68,1.56,1.12,2.98,2.72,4.26,4.8l1.44,2.04c.96,1.6,2.34,2.48,4.14,2.64,1.8.16,3.46-.44,4.98-1.8.96-.88,2.08-1.88,3.36-3,1.68-1.2,3.48-2.26,5.4-3.18,1.92-.92,4.26-1.68,7.02-2.28,2.76-.6,5.9-.9,9.42-.9h3.96c2.32,0,4.44.52,6.36,1.56h0Z"/>
    <path class="cls-1" d="M624.02,591.06c-8.93-4.24-15.71-10.65-20.35-19.21-1.12-2.16-1.72-4.3-1.8-6.42-.08-2.12.36-4.1,1.32-5.94.96-1.84,2.36-3.28,4.2-4.32l.6-.36c1.76-1.12,3.72-1.66,5.88-1.62,2.16.04,4.18.6,6.06,1.68,1.88,1.08,3.38,2.66,4.5,4.74,3.12,5.52,7.14,9.85,12.06,12.97,4.92,3.12,11.31,4.68,19.15,4.68,7.12,0,13.24-1.4,18.37-4.2,5.12-2.8,9.06-6.82,11.82-12.06,2.76-5.24,4.14-11.59,4.14-19.03v-3.36c0-1.92-.5-3.38-1.5-4.38-1-1-2.38-1.5-4.14-1.5-.88,0-1.78.22-2.7.66-.92.44-2.14,1.14-3.66,2.1-2.4,1.6-4.7,2.94-6.9,4.02-2.2,1.08-4.9,2.06-8.1,2.94-3.2.88-6.96,1.32-11.29,1.32-9.84,0-18.87-2.52-27.07-7.56-8.21-5.04-14.75-12.13-19.63-21.25-4.88-9.12-7.32-19.61-7.32-31.45s2.38-22.39,7.14-31.64c4.76-9.24,11.24-16.4,19.45-21.49,8.2-5.08,17.27-7.62,27.19-7.62,6.96,0,12.79.92,17.47,2.76,4.68,1.84,8.83,4.08,12.43,6.72l.6.36c1.44,1.12,3.08,1.68,4.92,1.68s3.32-.76,4.44-2.28l1.08-1.8c1.2-1.84,2.56-3.24,4.08-4.2,1.52-.96,3.44-1.44,5.76-1.44h.24c2.4,0,4.56.54,6.48,1.62,1.92,1.08,3.42,2.56,4.5,4.44,1.08,1.88,1.62,4.1,1.62,6.66v104.93c0,12.08-2.4,22.25-7.2,30.49-4.8,8.24-11.67,14.43-20.59,18.55-8.93,4.12-19.47,6.18-31.64,6.18s-22.71-2.12-31.63-6.36h0ZM681.94,513.15c5.76-6.96,8.64-16.93,8.64-29.89s-2.88-22.83-8.64-29.83c-5.76-7-14.01-10.5-24.73-10.5s-18.99,3.5-24.79,10.5c-5.8,7.01-8.7,16.95-8.7,29.83s2.9,22.93,8.7,29.89c5.8,6.96,14.07,10.45,24.79,10.45s18.97-3.48,24.73-10.45h0Z"/>
    <path class="cls-1" d="M738.05,384.45c1.36-2.4,3.24-4.28,5.64-5.64,2.4-1.36,5.12-2.04,8.16-2.04h.84c3.04,0,5.74.68,8.1,2.04,2.36,1.36,4.22,3.24,5.58,5.64,1.36,2.4,2.04,5.12,2.04,8.16v1.44c0,3.04-.68,5.76-2.04,8.16-1.36,2.4-3.22,4.28-5.58,5.64-2.36,1.36-5.06,2.04-8.1,2.04h-.84c-3.04,0-5.76-.68-8.16-2.04-2.4-1.36-4.28-3.24-5.64-5.64-1.36-2.4-2.04-5.12-2.04-8.16v-1.44c0-3.04.68-5.76,2.04-8.16h0ZM741.36,430.61c1.08-1.88,2.56-3.36,4.44-4.44,1.88-1.08,3.98-1.62,6.3-1.62h.24c2.32,0,4.42.54,6.3,1.62,1.88,1.08,3.36,2.56,4.44,4.44,1.08,1.88,1.62,3.98,1.62,6.3v101.32c0,2.33-.54,4.42-1.62,6.3-1.08,1.88-2.56,3.36-4.44,4.44-1.88,1.08-3.98,1.62-6.3,1.62h-.24c-2.32,0-4.42-.54-6.3-1.62-1.88-1.08-3.36-2.56-4.44-4.44-1.08-1.88-1.62-3.98-1.62-6.3v-101.32c0-2.32.54-4.42,1.62-6.3h0Z"/>
    <path class="cls-1" d="M854.48,425.63c4.72,1.92,9.08,4.44,13.09,7.56l1.44,1.2c1.52.96,3.08,1.34,4.68,1.14,1.6-.2,2.92-1.1,3.96-2.7l1.32-2.28c1.12-1.92,2.5-3.4,4.14-4.44,1.64-1.04,3.62-1.56,5.94-1.56h.24c2.72,0,5.02.6,6.9,1.8,1.88,1.2,3.3,2.78,4.26,4.74.96,1.96,1.44,4.18,1.44,6.66v100c0,2.56-.56,4.8-1.68,6.72-1.12,1.92-2.58,3.42-4.38,4.5-1.8,1.08-3.82,1.62-6.06,1.62h-.24c-2.72,0-4.86-.52-6.42-1.56-1.56-1.04-2.86-2.36-3.9-3.96l-1.2-2.52c-1.12-1.6-2.52-2.58-4.2-2.94-1.68-.36-3.44.1-5.28,1.38-4.16,3.44-8.66,6.21-13.5,8.28-4.84,2.08-10.86,3.12-18.07,3.12-10.57,0-20.03-2.74-28.39-8.22-8.37-5.48-14.91-13.13-19.63-22.93-4.72-9.8-7.08-20.99-7.08-33.55s2.36-23.89,7.08-33.74c4.72-9.85,11.28-17.51,19.69-22.99,8.4-5.48,17.85-8.22,28.33-8.22,6.96,0,12.81.96,17.53,2.88h0ZM867.81,520.59c5.92-7.76,8.88-18.77,8.88-33.01s-2.96-25.35-8.88-33.07c-5.92-7.72-14.33-11.59-25.21-11.59s-19.57,3.86-25.57,11.59c-6,7.72-9.01,18.75-9.01,33.07s3,25.25,9.01,33.01c6,7.76,14.53,11.64,25.57,11.64s19.29-3.88,25.21-11.64h0Z"/>
  </g>
  <path class="cls-1" d="M254.79,220.24l-34.36-7.34c-7.72-1.54-13.48-3.92-17.28-7.14-3.8-3.22-5.7-7.27-5.7-12.16,0-3.35,1-6.27,2.99-8.78,1.99-2.51,4.89-4.44,8.69-5.79,3.8-1.35,8.21-2.03,13.22-2.03,6.95,0,13.58,1.16,19.89,3.47,6.3,2.32,12.55,5.98,18.73,11,6.43,4.76,11.68,8.17,15.73,10.23,4.06,2.06,8.21,3.09,12.45,3.09s8.11-.97,11.58-2.9c3.48-1.93,6.18-4.6,8.11-8.01,1.93-3.41,2.89-7.17,2.89-11.29,0-6.18-1.64-12.1-4.92-17.76-3.28-5.66-8.01-10.74-14.19-15.25-8.11-6.05-18.21-10.71-30.31-14-12.1-3.28-25.03-4.92-38.8-4.92-17.37,0-32.5,2.74-45.37,8.2-12.87,5.47-22.81,13.26-29.83,23.36-7.02,10.1-10.52,21.98-10.52,35.62,0,16.09,5.41,29.51,16.22,40.25,10.81,10.75,26.51,18.37,47.11,22.88l31.85,6.76c7.98,1.67,13.77,4.18,17.38,7.53,3.6,3.35,5.4,7.79,5.4,13.32,0,3.86-1.09,7.14-3.28,9.85-2.19,2.7-5.34,4.73-9.46,6.08-4.12,1.35-9.07,2.03-14.87,2.03-9.14,0-17.54-1.54-25.19-4.63-7.66-3.09-15.54-8.24-23.65-15.44-5.28-4.5-9.85-7.66-13.71-9.46-3.86-1.8-7.98-2.7-12.36-2.7s-8.49.96-11.97,2.9c-3.47,1.93-6.18,4.6-8.11,8.01-1.93,3.41-2.9,7.37-2.9,11.87,0,5.02,1.13,9.91,3.38,14.67,2.25,4.76,5.24,9.07,8.98,12.93,8.11,9.14,19.56,16.41,34.36,21.81,14.8,5.41,30.89,8.11,48.26,8.11,18.53,0,34.59-2.86,48.17-8.59,13.58-5.73,24.03-13.96,31.37-24.71,7.34-10.75,11.01-23.52,11.01-38.32,0-16.73-5.02-30.24-15.06-40.54-10.04-10.3-25.35-17.69-45.95-22.2h0Z"/>
  <path class="cls-1" d="M891.94,172.45c-7.21-13.58-17.31-23.94-30.31-31.08-13-7.14-27.93-10.72-44.79-10.72-18.28,0-33.59,3.09-45.95,9.27-11.22,5.61-20.08,13.15-26.63,22.58-6.28-8.8-14.09-15.85-23.47-21.14-12.68-7.14-27.45-10.72-44.3-10.72-15.58,0-29.22,3.35-40.93,10.04-6.97,3.98-12.68,8.99-17.18,14.97-.57-3.32-1.57-6.43-3.09-9.28-2.45-4.57-5.86-8.14-10.23-10.72-4.38-2.57-9.33-3.86-14.86-3.86s-10.52,1.29-14.96,3.86c-4.44,2.58-7.88,6.15-10.33,10.72-2.45,4.57-3.67,9.75-3.67,15.54v161.39c0,5.79,1.22,10.98,3.67,15.54,2.45,4.57,5.89,8.14,10.33,10.72,4.44,2.57,9.43,3.86,14.96,3.86s10.49-1.29,14.86-3.86c4.38-2.57,7.79-6.15,10.23-10.72,2.44-4.57,3.67-9.75,3.67-15.54v-90.93c0-9.78,1.77-18.4,5.31-25.87,3.54-7.46,8.62-13.22,15.25-17.28,6.63-4.06,14.32-6.08,23.07-6.08,12.74,0,22.65,4.05,29.73,12.16,7.08,8.11,10.62,19.82,10.62,35.14v92.86c0,5.67,1.22,10.78,3.67,15.35,2.44,4.57,5.89,8.17,10.33,10.81,4.44,2.64,9.43,3.96,14.96,3.96s10.52-1.29,14.96-3.86c4.44-2.57,7.88-6.15,10.33-10.72,2.45-4.57,3.67-9.75,3.67-15.54v-90.93c0-9.78,1.77-18.4,5.31-25.87,3.54-7.46,8.59-13.22,15.15-17.28,6.56-4.06,14.29-6.08,23.17-6.08,12.74,0,22.65,4.05,29.73,12.16,7.08,8.11,10.62,19.82,10.62,35.14v92.86c0,5.67,1.22,10.78,3.67,15.35,2.44,4.57,5.89,8.17,10.33,10.81,4.44,2.64,9.43,3.96,14.96,3.96s10.49-1.29,14.87-3.86c4.37-2.57,7.82-6.15,10.33-10.72,2.51-4.57,3.77-9.75,3.77-15.54v-101.93c0-19.05-3.61-35.36-10.81-48.94h0Z"/>
  <path class="cls-1" d="M435.14,129.66c-62.39,0-112.97,50.58-112.97,112.97s50.58,112.97,112.97,112.97,112.97-50.58,112.97-112.97-50.58-112.97-112.97-112.97h0ZM435,298.04c-30.69,0-55.57-24.88-55.57-55.57s24.88-55.57,55.57-55.57,55.57,24.88,55.57,55.57-24.88,55.57-55.57,55.57h0Z"/>
</svg>
